<svg version="1.1" id="Layer_1" xmlns="http://www.w3.org/2000/svg" xmlns:xlink="http://www.w3.org/1999/xlink" x="0px" y="0px" viewBox="0 0 1200 1200" enable-background="new 0 0 1200 1200" xml:space="preserve">
<path d="M1149.902,786.906l-28.039-444.178c-0.33-5.245-3.432-10.006-8.1-12.424l-65.209-33.796&#10;&#9;c-2.434-1.325-5.209-1.987-8.057-1.852L64.314,347.311c-8.048,0.434-14.336,7.088-14.314,15.147l0.999,385.873&#10;&#9;c0.01,3.479,2.833,6.295,6.312,6.295h27.592c0.481,0,0.952-0.07,1.413-0.176c0.017-0.003,0.035-0.001,0.052-0.004l181.399-29.489&#10;&#9;c0.666-0.109,1.322-0.26,1.968-0.44l747.495,80.633v93.898c0,3.487,2.826,6.312,6.312,6.312h27.592c1.677,0,3.284-0.666,4.468-1.852&#10;&#9;c0.335-0.336,0.616-0.712,0.864-1.107c0.067-0.061,0.143-0.104,0.208-0.168l78.681-77.325&#10;&#9;C1145.496,814.945,1150.798,801.095,1149.902,786.906z M1071.85,782.928l-3.357-40.233l48.06,4.112l-40.093,36.618L1071.85,782.928z&#10;&#9; M1064.178,782.101l-6.931-0.748l-0.068-39.626l3.657,0.313L1064.178,782.101z M1057.166,734.125l-0.012-7.189l2.28-1.703&#10;&#9;l0.763,9.151L1057.166,734.125z M1062.829,674.797l47.712,2.805l-44.693,33.384L1062.829,674.797z M1057.285,608.355l45.363,1.615&#10;&#9;l-43.3,23.12L1057.285,608.355z M1056.838,542.014l30.337,0.391l-30.322,8.843L1056.838,542.014z M1056.583,392.539l24.96,7.834&#10;&#9;l-24.945,0.785L1056.583,392.539z M1057.297,811.186l1.678-1.533l47.306,5.103l-48.897,47.753L1057.297,811.186z M1086.505,784.509&#10;&#9;l33.313-30.425l2.162,34.252L1086.505,784.509z M1067.854,735.04l-1.264-15.153l48.77-36.431l3.532,55.95L1067.854,735.04z&#10;&#9; M1062.193,667.173l-2.159-25.863l50.95-27.204l3.543,56.142L1062.193,667.173z M1056.938,600.763l-0.072-41.627l49.732-14.506&#10;&#9;l3.663,58.032L1056.938,600.763z M1056.825,534.437l-0.1-58.735l45.483-0.63l3.786,59.998L1056.825,534.437z M1056.711,468.127&#10;&#9;l-0.101-59.39l41.328-1.299l3.791,60.066L1056.711,468.127z M1056.569,384.596l-0.059-34.335l33.689-1.461l2.96,1.547&#10;&#9;c0.75,0.392,1.25,1.16,1.302,2.005l2.842,45.03L1056.569,384.596z M1056.498,342.68l-0.02-11.509l20.329,10.628L1056.498,342.68z&#10;&#9; M387.989,378.954l4.415,0.449l7.937,42.456c-19.733,0.625-38.353,1.216-55.657,1.766l-8.299-42.432L387.989,378.954z&#10;&#9; M519.337,373.257l7.065,44.613c-18.916,0.598-37.457,1.184-55.49,1.754l-7.474-43.943L519.337,373.257z M582.857,370.502&#10;&#9;l6.681,45.374c-16.968,0.536-33.795,1.067-50.373,1.591c-1.72,0.054-3.419,0.108-5.133,0.162l-7.079-44.702L582.857,370.502z&#10;&#9; M709.922,364.99l5.934,46.9c-18.439,0.581-36.999,1.167-55.564,1.752l-6.319-46.226L709.922,364.99z M773.425,362.236L779,409.9&#10;&#9;c-18.277,0.576-36.823,1.161-55.54,1.751l-5.945-46.99L773.425,362.236z M836.918,359.482l5.224,48.428&#10;&#9;c-18.084,0.57-36.641,1.154-55.543,1.75l-5.585-47.754L836.918,359.482z M900.417,356.727l4.877,49.194&#10;&#9;c-17.822,0.561-36.389,1.146-55.558,1.75l-5.234-48.518L900.417,356.727z M963.906,353.974l4.538,49.96&#10;&#9;c-17.37,0.547-35.96,1.132-55.562,1.749l-4.887-49.284L963.906,353.974z M490.488,534.718l54.529,0.702l7.505,47.386l-54.182-1.929&#10;&#9;L490.488,534.718z M490.609,580.602l-53.239-1.895l-8.371-44.781l53.789,0.693L490.609,580.602z M552.702,535.519l54.556,0.703&#10;&#9;l7.184,48.788l-54.208-1.93L552.702,535.519z M614.93,536.321l54.579,0.703l6.859,50.191l-54.228-1.931L614.93,536.321z&#10;&#9; M677.168,537.123l54.621,0.704l6.528,51.594l-54.266-1.932L677.168,537.123z M739.437,537.925l54.619,0.704l6.199,52.997&#10;&#9;l-54.267-1.932L739.437,537.925z M801.694,538.727l54.635,0.704l5.867,54.4l-54.283-1.933L801.694,538.727z M863.958,539.529&#10;&#9;l54.654,0.704l5.533,55.803l-54.302-1.933L863.958,539.529z M926.235,540.331l54.667,0.704l5.197,57.206l-54.313-1.934&#10;&#9;L926.235,540.331z M988.517,541.133l28.713,0.37v57.847l-23.5-0.836L988.517,541.133z M987.828,533.548l-5.213-57.365l34.615-0.329&#10;&#9;v58.073L987.828,533.548z M980.212,533.45l-54.73-0.705l-5.551-55.965l55.084-0.524L980.212,533.45z M917.86,532.647l-54.72-0.705&#10;&#9;l-5.886-54.565l55.074-0.524L917.86,532.647z M855.511,531.844l-54.704-0.705l-6.218-53.166l55.054-0.524L855.511,531.844z&#10;&#9; M793.168,531.041l-54.691-0.704l-6.549-51.766l55.043-0.524L793.168,531.041z M730.83,530.238l-54.699-0.705l-6.885-50.367&#10;&#9;l55.055-0.524L730.83,530.238z M668.471,529.434l-54.658-0.704l-7.21-48.968l55.008-0.524L668.471,529.434z M606.14,528.631&#10;&#9;l-54.641-0.704l-7.533-47.569l54.989-0.523L606.14,528.631z M543.815,527.828l-54.619-0.703l-7.854-46.17l54.966-0.523&#10;&#9;L543.815,527.828z M481.497,527.026l-53.917-0.695l-8.373-44.785l54.466-0.518L481.497,527.026z M419.853,526.232l-55.239-0.712&#10;&#9;l-8.484-43.373l55.383-0.527L419.853,526.232z M421.273,533.826l8.338,44.604l-55.032-1.959l-8.48-43.355L421.273,533.826z&#10;&#9; M431.038,586.061l8.322,44.513l-54.828-3.222l-8.459-43.248L431.038,586.061z M438.798,586.337l53.108,1.891l7.807,45.893&#10;&#9;l-52.56-3.089L438.798,586.337z M499.636,588.503l54.092,1.926l7.491,47.306l-53.747-3.158L499.636,588.503z M561.442,590.703&#10;&#9;l54.122,1.927l7.173,48.72l-53.775-3.16L561.442,590.703z M623.262,592.904l54.148,1.928l6.851,50.133l-53.799-3.161&#10;&#9;L623.262,592.904z M685.092,595.105l54.188,1.929l6.522,51.547l-53.833-3.164L685.092,595.105z M746.95,597.307l54.195,1.93&#10;&#9;l6.194,52.961l-53.844-3.164L746.95,597.307z M808.803,599.51l54.214,1.93l5.865,54.375l-53.863-3.165L808.803,599.51z&#10;&#9; M870.665,601.712l54.235,1.931l5.531,55.789l-53.881-3.166L870.665,601.712z M932.54,603.915l54.25,1.931l5.197,57.203&#10;&#9;l-53.897-3.167L932.54,603.915z M994.421,606.118l22.809,0.812v57.602l-17.596-1.034L994.421,606.118z M1017.23,468.279&#10;&#9;l-35.303,0.336l-5.211-57.364c14.896-0.469,28.476-0.896,40.514-1.275V468.279z M974.328,468.687l-55.145,0.525l-5.551-55.975&#10;&#9;c19.855-0.625,38.462-1.211,55.499-1.747L974.328,468.687z M911.577,469.285l-55.139,0.525l-5.887-54.586&#10;&#9;c19.278-0.607,37.844-1.192,55.493-1.748L911.577,469.285z M848.827,469.882l-55.123,0.525l-6.222-53.196&#10;&#9;c18.956-0.597,37.504-1.182,55.476-1.748L848.827,469.882z M786.085,470.479l-55.114,0.525l-6.554-51.805&#10;&#9;c18.739-0.591,37.277-1.175,55.467-1.749L786.085,470.479z M723.344,471.076l-55.13,0.525l-6.891-50.412&#10;&#9;c18.576-0.586,37.118-1.171,55.489-1.75L723.344,471.076z M660.577,471.674l-55.089,0.524l-7.217-49.02&#10;&#9;c18.402-0.581,36.928-1.166,55.44-1.75L660.577,471.674z M597.842,472.271l-55.072,0.524l-7.542-47.625&#10;&#9;c18.23-0.576,36.75-1.161,55.421-1.751L597.842,472.271z M535.112,472.868l-55.055,0.524l-7.863-46.229&#10;&#9;c18.021-0.57,36.542-1.156,55.403-1.752L535.112,472.868z M472.387,473.465l-54.594,0.52l-8.381-44.834&#10;&#9;c17.655-0.559,36.101-1.144,55.14-1.746L472.387,473.465z M410.099,474.058l-55.447,0.528l-8.495-43.429&#10;&#9;c17.299-0.55,35.923-1.141,55.591-1.764L410.099,474.058z M346.949,474.659l-54.423,0.518l-8.703-42.035&#10;&#9;c15.901-0.508,34.286-1.094,54.666-1.742L346.949,474.659z M348.429,482.22l8.449,43.201l-54.092-0.697l-8.693-41.986&#10;&#9;L348.429,482.22z M358.363,533.016l8.445,43.178l-53.762-1.914l-8.688-41.96L358.363,533.016z M368.302,583.827l8.423,43.066&#10;&#9;l-53.435-3.14l-8.662-41.837L368.302,583.827z M378.227,634.568l8.247,42.164l-53.155-4.549l-8.438-40.75L378.227,634.568z&#10;&#9; M386.032,635.026l54.762,3.218l8.196,43.837l-54.669-4.678L386.032,635.026z M448.587,638.702l52.429,3.081l7.724,45.411&#10;&#9;l-51.919-4.443L448.587,638.702z M508.776,642.239l53.657,3.153l7.448,47.034l-53.344-4.565L508.776,642.239z M570.174,645.847&#10;&#9;l53.689,3.155l7.163,48.657l-53.371-4.567L570.174,645.847z M631.589,649.456l53.717,3.157l6.871,50.279l-53.394-4.569&#10;&#9;L631.589,649.456z M693.014,653.066l53.754,3.159l6.566,51.901l-53.422-4.571L693.014,653.066z M754.462,656.677l53.769,3.16&#10;&#9;l6.261,53.522l-53.438-4.573L754.462,656.677z M815.912,660.288l53.794,3.161l5.948,55.144l-53.456-4.575L815.912,660.288z&#10;&#9; M877.374,663.9l53.815,3.162l5.629,56.765l-53.475-4.576L877.374,663.9z M938.846,667.512l53.833,3.163l5.305,58.385l-53.489-4.577&#10;&#9;L938.846,667.512z M1000.327,671.125l16.903,0.993v58.59l-11.579-0.991L1000.327,671.125z M1017.23,402.398&#10;&#9;c-12.661,0.398-26.432,0.832-41.201,1.297l-4.548-50.05l45.749-1.984V402.398z M646.376,367.765l6.303,46.118&#10;&#9;c-18.572,0.586-37.116,1.171-55.519,1.752l-6.693-45.463l55.806-2.421L646.376,367.765z M455.859,376.296l7.411,43.57&#10;&#9;c-19.114,0.605-37.586,1.19-55.267,1.75l-8.072-43.18l54.018-2.343L455.859,376.296z M328.922,382.488l8.094,41.381&#10;&#9;c-8.124,0.258-15.933,0.507-23.379,0.744c-11.313,0.36-21.799,0.695-31.372,1.001l-8.634-41.699l48.696-2.112L328.922,382.488z&#10;&#9; M265.964,384.247l8.616,41.612c-11.836,0.379-22.049,0.708-30.385,0.977l-21.075,0.695l-8.892-41.041L265.964,384.247z&#10;&#9; M276.139,433.389l8.667,41.862l-51.242,0.488l-8.815-40.687C233.38,434.763,251.253,434.185,276.139,433.389z M286.372,482.811&#10;&#9;l8.657,41.813l-51.016-0.657l-8.812-40.669L286.372,482.811z M296.602,532.22l8.651,41.783l-50.791-1.808l-8.804-40.631&#10;&#9;L296.602,532.22z M306.835,581.639l8.624,41.654l-50.569-2.972l-8.773-40.488L306.835,581.639z M317.05,630.973l8.394,40.537&#10;&#9;l-50.396-4.313l-8.492-39.192L317.05,630.973z M281.655,697.692l-4.929-22.75l50.32,4.306l4.944,23.874L281.655,697.692z&#10;&#9; M339.899,703.974l-4.98-24.053l53.065,4.541l4.935,25.232L339.899,703.974z M400.802,710.544l-4.97-25.41l54.601,4.672&#10;&#9;l4.978,26.628L400.802,710.544z M463.277,717.283l-5.012-26.807l51.787,4.432l4.752,27.933L463.277,717.283z M522.63,723.685&#10;&#9;l-4.781-28.11l53.253,4.557l4.637,29.282L522.63,723.685z M583.54,730.255l-4.664-29.458l53.285,4.56l4.51,30.629L583.54,730.255z&#10;&#9; M644.453,736.826l-4.536-30.805l53.312,4.562l4.369,31.976L644.453,736.826z M705.359,743.396l-4.394-32.151l53.341,4.565&#10;&#9;l4.217,33.321L705.359,743.396z M766.265,749.965l-4.237-33.495l53.362,4.566l4.055,34.665L766.265,749.965z M827.17,756.535&#10;&#9;l-4.075-34.839l53.387,4.569l3.884,36.009L827.17,756.535z M888.074,763.105l-3.903-36.183l53.407,4.57l3.704,37.352&#10;&#9;L888.074,763.105z M948.976,769.674l-3.721-37.525l53.425,4.572l3.516,38.694L948.976,769.674z M1009.878,776.243l-3.531-38.866&#10;&#9;l10.883,0.931v38.728L1009.878,776.243z M1017.23,340.832l-18.69-3.585l18.69-1.007V340.832z M967.146,338.939l31.091,5.963&#10;&#9;l-30.62,1.328l-30.497-5.673L967.146,338.939z M905.007,342.288l29.025,5.4l-29.955,1.299l-29.067-5.083L905.007,342.288z&#10;&#9; M841.394,345.715l27.449,4.8l-28.318,1.228l-27.645-4.492L841.394,345.715z M777.412,349.163l25.834,4.198L776.98,354.5&#10;&#9;l-25.957-3.915L777.412,349.163z M713.596,352.601l23.933,3.61l-24.183,1.049l-29.988-3.029L713.596,352.601z M634.215,356.878&#10;&#9;l26.411,2.668l-14.017,0.608l-21.123-2.806L634.215,356.878z M584.565,359.554l18.682,2.482l-17.527,0.76l-19.359-2.261&#10;&#9;L584.565,359.554z M521.682,362.942l16.428,1.919l-18.078,0.784l-15.812-1.762L521.682,362.942z M458.118,366.367l12.684,1.414&#10;&#9;l-16.608,0.72l-11.991-1.276L458.118,366.367z M394.678,369.785l8.659,0.921l-15.126,0.656l-7.9-0.804L394.678,369.785z&#10;&#9; M331.378,373.196l4.357,0.443l-13.171,0.571l-3.418-0.355L331.378,373.196z M253.367,699.149L91.152,725.36l-0.072-26.072&#10;&#9;l157.538-22.06L253.367,699.149z M91.058,691.643l-0.123-44.357l147.512-16.997l8.562,39.516L91.058,691.643z M90.914,639.663&#10;&#9;l-0.123-44.417l137.119-13.588l8.925,41.192L90.914,639.663z M90.77,587.633l-0.123-44.421L217.4,533.146l8.895,41.057&#10;&#9;L90.77,587.633z M90.625,535.616l-0.125-44.572l116.369-6.494l8.911,41.127L90.625,535.616z M90.48,483.456l-0.123-44.282&#10;&#9;l105.983-3.224l8.906,41.104L90.48,483.456z M90.336,431.595l-0.104-37.442l96.886,7.445c1.082,0.083,1.963,0.851,2.192,1.911&#10;&#9;l5.398,24.91L90.336,431.595z" style="fill: rgb(167, 73, 73);"/>
</svg>